<svg width="41" height="42" viewBox="0 0 41 42" fill="none" xmlns="http://www.w3.org/2000/svg">
<g clip-path="url(#clip0_1_6177)">
<path fill-rule="evenodd" clip-rule="evenodd" d="M18.608 0.596191C19.5923 0.596191 20.4079 1.31738 20.5537 2.25942C20.5537 2.2469 20.5539 2.27189 20.5537 2.25942L20.5769 6.36519C20.5769 6.37771 20.5765 6.35273 20.5763 6.36519C20.5763 7.44903 21.4565 8.31518 22.5419 8.31518L39.9916 8.04613C40.0765 8.04613 40.1587 8.05688 40.2373 8.07705C40.253 8.08108 40.2685 8.08549 40.2839 8.09027C40.6685 8.20974 40.9519 8.55878 40.9731 8.97689C40.9739 8.9936 40.9744 9.01043 40.9744 9.02735V40.018C40.9744 40.5599 40.5344 40.9992 39.9916 40.9992L22.3502 41.2683V41.2668C21.2628 41.2668 20.3813 40.3867 20.3813 39.3009L20.38 35.2512C20.38 34.1674 19.5 33.2887 18.4145 33.2887H0.949754C0.407018 33.2887 -0.032959 32.8494 -0.032959 32.3075V1.57742C-0.032959 1.56049 -0.0325273 1.54367 -0.0316793 1.52695C-0.0104648 1.10885 0.272864 0.759804 0.657502 0.640335C0.67289 0.635556 0.688439 0.631144 0.704141 0.627109C0.774806 0.608954 0.848543 0.598427 0.924421 0.596509C0.932839 0.596297 0.941285 0.596191 0.949754 0.596191H18.608ZM10.6874 8.31518C9.59996 8.31518 8.71845 9.19536 8.71845 10.2811V23.6038C8.71845 24.6896 9.59996 25.5697 10.6874 25.5697L18.1125 25.5978H18.608C19.6954 25.5978 20.5769 26.478 20.5769 27.5638L20.5765 31.3263C20.5767 31.3138 20.5765 31.3388 20.5765 31.3263C20.5765 32.4101 21.4565 33.2887 22.5419 33.2887H30.2691C31.3565 33.2887 32.238 32.4086 32.238 31.3228V18.0001C32.238 16.9144 31.3565 16.0342 30.2691 16.0342H22.8065L22.3502 16.0274C21.2628 16.0274 20.3813 15.1472 20.3813 14.0615V13.3877H20.38V10.2776C20.38 9.19381 19.5 8.31518 18.4145 8.31518H10.6874Z" fill="black"/>
</g>
<defs>
<clipPath id="clip0_1_6177">
<rect width="41" height="41.8325" fill="white"/>
</clipPath>
</defs>
</svg>
