<svg width="153" height="36" viewBox="0 0 153 36" fill="none" xmlns="http://www.w3.org/2000/svg">
<g clip-path="url(#clip0_218_4941)">
<path d="M130.778 27.4149C130.778 27.8876 130.395 28.2708 129.923 28.2708H125.738C125.266 28.2708 124.882 27.8876 124.882 27.4149V0.858529C124.882 0.385801 125.266 0.00257955 125.738 0.00257959L129.923 0.00257996C130.395 0.00258 130.778 0.385801 130.778 0.858529V27.4149Z" fill="black"/>
<path d="M39.7657 0C40.2384 2.41815e-07 40.6216 0.383222 40.6216 0.855949L40.6216 21.492C40.6216 22.2514 41.2372 22.867 41.9966 22.867H53.0829C53.5557 22.867 53.9389 23.2502 53.9389 23.7229V27.4153C53.9389 27.8881 53.5557 28.2713 53.0829 28.2713H35.3379C34.8652 28.2713 34.482 27.8881 34.482 27.4153V0.855949C34.482 0.383221 34.8652 2.75807e-08 35.3379 0H39.7657Z" fill="black"/>
<path fill-rule="evenodd" clip-rule="evenodd" d="M65.4531 5.29139C67.7752 5.29139 69.7893 5.75784 71.4954 6.69114C73.2014 7.62443 74.5165 8.95079 75.4406 10.67C76.3647 12.3892 76.8268 14.4279 76.8268 16.7857C76.8268 19.1189 76.3647 21.1574 75.4406 22.9012C74.5165 24.6204 73.1896 25.9468 71.4598 26.8801C69.7538 27.8134 67.7396 28.28 65.4175 28.28C63.0954 28.28 61.0694 27.8134 59.3397 26.8801C57.6336 25.9222 56.3067 24.5835 55.3589 22.8643C54.4111 21.1451 53.9373 19.1066 53.9373 16.7488C53.9373 14.4156 54.3992 12.3892 55.3233 10.67C56.2711 8.95077 57.6099 7.62444 59.3397 6.69114C61.0694 5.75783 63.1073 5.29139 65.4531 5.29139ZM65.4175 10.5965C63.6167 10.5965 62.2306 11.149 61.2591 12.2541C60.3113 13.3348 59.8373 14.8331 59.8373 16.7488C59.8373 18.6645 60.3113 20.1873 61.2591 21.3171C62.2306 22.4223 63.6167 22.9749 65.4175 22.9749C67.1947 22.9749 68.5572 22.4223 69.505 21.3171C70.4528 20.1873 70.9266 18.6645 70.9266 16.7488C70.9266 14.8331 70.4528 13.3348 69.505 12.2541C68.5572 11.1489 67.1946 10.5965 65.4175 10.5965Z" fill="black"/>
<path d="M151.72 6.19497C151.72 5.70413 151.337 5.30622 150.864 5.30622H134.032C133.56 5.30622 133.176 5.70413 133.176 6.19497V9.28905C133.176 9.77989 133.56 10.1778 134.032 10.1778L141.312 10.1782C142.487 10.1782 143.305 11.7152 142.541 12.6414L133.408 24.2808C133.288 24.399 133.172 24.6495 133.172 24.8693V25.8337H133.176V27.3819C133.176 27.8728 133.559 28.2707 134.032 28.2707H150.87C151.343 28.2707 151.726 27.8728 151.726 27.3819V24.2879C151.726 23.797 151.343 23.3991 150.87 23.3991H143.528C142.391 23.3535 141.79 21.9549 142.541 21.0439L144.255 18.9662L151.529 9.84688C151.717 9.52896 151.725 9.59278 151.725 8.7489V6.88044H151.72V6.19497Z" fill="black"/>
<path fill-rule="evenodd" clip-rule="evenodd" d="M12.8536 0C13.5409 0 14.1105 0.504404 14.2123 1.16327C14.2123 1.15451 14.2125 1.17199 14.2123 1.16327L14.2285 4.03487C14.2285 4.04363 14.2283 4.02615 14.2281 4.03487C14.2281 4.79291 14.8428 5.39871 15.6008 5.39871L27.7868 5.21053C27.8461 5.21053 27.9035 5.21805 27.9583 5.23215C27.9693 5.23497 27.9802 5.23806 27.9909 5.2414C28.2595 5.32496 28.4574 5.56908 28.4722 5.86151C28.4728 5.8732 28.4731 5.88497 28.4731 5.8968V27.5718C28.4731 27.9509 28.1658 28.2581 27.7868 28.2581L15.4669 28.4463V28.4453C14.7076 28.4453 14.092 27.8297 14.092 27.0703L14.091 24.2379C14.091 23.4799 13.4765 22.8654 12.7185 22.8654H0.52197C0.142951 22.8654 -0.164307 22.5581 -0.164307 22.1791V0.686277C-0.164307 0.674439 -0.164005 0.662671 -0.163413 0.650981C-0.148598 0.358555 0.0492647 0.114431 0.317876 0.0308745C0.328622 0.0275317 0.339481 0.0244457 0.350447 0.0216241C0.399795 0.00892592 0.451289 0.00156328 0.504279 0.00022231C0.510157 7.35563e-05 0.516056 4.91637e-09 0.52197 0H12.8536ZM7.32221 5.39871C6.56283 5.39871 5.94723 6.01431 5.94723 6.77369V16.0917C5.94723 16.851 6.56283 17.4666 7.32221 17.4666L12.5075 17.4863H12.8536C13.6129 17.4863 14.2285 18.1019 14.2285 18.8613L14.2283 21.4928C14.2283 21.5016 14.2285 21.4841 14.2283 21.4928C14.2283 22.2508 14.8428 22.8654 15.6008 22.8654H20.9971C21.7565 22.8654 22.3721 22.2498 22.3721 21.4904V12.1724C22.3721 11.413 21.7565 10.7974 20.9971 10.7974H15.7856L15.4669 10.7927C14.7076 10.7927 14.092 10.1771 14.092 9.41771V8.94648H14.091V6.77126C14.091 6.01322 13.4765 5.39871 12.7185 5.39871H7.32221Z" fill="black"/>
<path fill-rule="evenodd" clip-rule="evenodd" d="M110.246 5.29164C113.421 5.29164 115.838 6.00244 117.496 7.42413C119.179 8.84585 120.02 10.9192 120.02 13.6441V18.4475L119.995 21.6088C119.991 22.0842 120.376 22.4715 120.851 22.4715H121.983C122.434 22.4958 122.792 22.8692 122.792 23.3262V27.4261C122.792 27.8988 122.409 28.2821 121.936 28.2821H117.677C117.204 28.2821 116.821 27.8988 116.821 27.4261L116.821 25.4658C116.821 24.691 115.705 24.2709 115.248 24.9428L114.919 25.427C114.241 26.298 113.394 26.7089 112.378 27.2756C111.146 27.939 109.606 28.2707 107.758 28.2707C105.246 28.2707 103.279 27.6664 101.858 26.458C100.436 25.2258 99.725 23.6146 99.725 21.6242C99.725 19.5154 100.46 17.0563 101.929 15.9189C103.398 14.7816 105.507 14.2127 108.255 14.2127H113.718C114.077 14.2127 114.369 13.9215 114.369 13.5622V13.3953C114.369 11.0969 112.994 9.94775 110.246 9.94775C108.082 9.94775 106.693 10.6259 106.078 11.9823C105.96 12.244 105.713 12.4356 105.426 12.4356H100.84C100.429 12.4356 100.12 12.0582 100.23 11.6621C100.776 9.69539 101.816 8.17604 103.35 7.10415C105.08 5.89571 107.379 5.29165 110.246 5.29164ZM114.116 20.48C114.674 19.7295 114.066 18.8463 113.13 18.8656L108.64 18.9585H107.884C105.752 18.9585 104.685 19.7522 104.685 21.3398C104.685 22.1217 104.981 22.726 105.574 23.1525C106.166 23.579 106.972 23.7922 107.991 23.7923C109.104 23.7923 110.088 23.5909 110.941 23.1881C111.382 22.9795 111.777 22.736 112.123 22.4576C112.927 21.875 113.608 21.1616 114.116 20.48Z" fill="black"/>
<path d="M81.6602 5.34781C81.923 5.34781 82.16 5.50581 82.2609 5.74829L82.3256 5.90379L86.892 18.1383C87.3231 19.3824 89.2381 19.3778 89.6471 18.1262L94.1494 6.07904L94.2817 5.75338C94.3813 5.5082 94.6197 5.34781 94.8845 5.34781H99.0928C99.5598 5.34781 99.7944 5.84265 99.6105 6.2716L95.2953 16.9168L90.9445 27.5003L89.2029 31.6202C88.6105 33.0173 87.9233 34.0948 87.1413 34.8525C86.3594 35.6338 85.1627 36.0244 83.5514 36.0244H79.3325C78.9732 36.0244 78.682 35.7334 78.682 35.3743V31.9508C78.682 31.5918 78.9732 31.3007 79.3325 31.3007H79.4595C79.4733 31.3014 79.4873 31.3017 79.5014 31.3017H82.8679C82.8856 31.3017 82.9032 31.3014 82.9208 31.3007H82.9412C82.9907 31.3007 83.0394 31.2951 83.0863 31.2843C83.5922 31.2032 84.0171 30.8445 84.1767 30.349L85.2132 28.0961C85.386 27.7206 85.3804 27.2874 85.1982 26.9165L82.8679 20.9804L76.9042 6.25201C76.7171 5.82264 77.032 5.34247 77.5006 5.34247L81.6602 5.34781Z" fill="black"/>
</g>
<defs>
<clipPath id="clip0_218_4941">
<rect width="152.055" height="36" fill="white"/>
</clipPath>
</defs>
</svg>
