<svg width="62" height="62" viewBox="0 0 62 62" fill="none" xmlns="http://www.w3.org/2000/svg">
<path d="M2.13793 0H0V2.13793H2.13793V0Z" fill="black"/>
<path d="M4.27586 0H2.13793V2.13793H4.27586V0Z" fill="black"/>
<path d="M6.41379 0H4.27586V2.13793H6.41379V0Z" fill="black"/>
<path d="M8.55172 0H6.41379V2.13793H8.55172V0Z" fill="black"/>
<path d="M10.6897 0H8.55172V2.13793H10.6897V0Z" fill="black"/>
<path d="M12.8276 0H10.6897V2.13793H12.8276V0Z" fill="black"/>
<path d="M14.9655 0H12.8276V2.13793H14.9655V0Z" fill="black"/>
<path d="M23.5172 0H21.3793V2.13793H23.5172V0Z" fill="black"/>
<path d="M38.4828 0H36.3448V2.13793H38.4828V0Z" fill="black"/>
<path d="M40.6207 0H38.4828V2.13793H40.6207V0Z" fill="black"/>
<path d="M42.7586 0H40.6207V2.13793H42.7586V0Z" fill="black"/>
<path d="M44.8966 0H42.7586V2.13793H44.8966V0Z" fill="black"/>
<path d="M49.1724 0H47.0345V2.13793H49.1724V0Z" fill="black"/>
<path d="M51.3103 0H49.1724V2.13793H51.3103V0Z" fill="black"/>
<path d="M53.4483 0H51.3103V2.13793H53.4483V0Z" fill="black"/>
<path d="M55.5862 0H53.4483V2.13793H55.5862V0Z" fill="black"/>
<path d="M57.7241 0H55.5862V2.13793H57.7241V0Z" fill="black"/>
<path d="M59.8621 0H57.7241V2.13793H59.8621V0Z" fill="black"/>
<path d="M62 0H59.8621V2.13793H62V0Z" fill="black"/>
<path d="M2.13793 2.13793H0V4.27586H2.13793V2.13793Z" fill="black"/>
<path d="M14.9655 2.13793H12.8276V4.27586H14.9655V2.13793Z" fill="black"/>
<path d="M19.2414 2.13793H17.1034V4.27586H19.2414V2.13793Z" fill="black"/>
<path d="M23.5172 2.13793H21.3793V4.27586H23.5172V2.13793Z" fill="black"/>
<path d="M25.6552 2.13793H23.5172V4.27586H25.6552V2.13793Z" fill="black"/>
<path d="M32.069 2.13793H29.931V4.27586H32.069V2.13793Z" fill="black"/>
<path d="M34.2069 2.13793H32.069V4.27586H34.2069V2.13793Z" fill="black"/>
<path d="M36.3448 2.13793H34.2069V4.27586H36.3448V2.13793Z" fill="black"/>
<path d="M38.4828 2.13793H36.3448V4.27586H38.4828V2.13793Z" fill="black"/>
<path d="M49.1724 2.13793H47.0345V4.27586H49.1724V2.13793Z" fill="black"/>
<path d="M62 2.13793H59.8621V4.27586H62V2.13793Z" fill="black"/>
<path d="M2.13793 4.27586H0V6.41379H2.13793V4.27586Z" fill="black"/>
<path d="M6.41379 4.27586H4.27586V6.41379H6.41379V4.27586Z" fill="black"/>
<path d="M8.55172 4.27586H6.41379V6.41379H8.55172V4.27586Z" fill="black"/>
<path d="M10.6897 4.27586H8.55172V6.41379H10.6897V4.27586Z" fill="black"/>
<path d="M14.9655 4.27586H12.8276V6.41379H14.9655V4.27586Z" fill="black"/>
<path d="M19.2414 4.27586H17.1034V6.41379H19.2414V4.27586Z" fill="black"/>
<path d="M27.7931 4.27586H25.6552V6.41379H27.7931V4.27586Z" fill="black"/>
<path d="M29.931 4.27586H27.7931V6.41379H29.931V4.27586Z" fill="black"/>
<path d="M34.2069 4.27586H32.069V6.41379H34.2069V4.27586Z" fill="black"/>
<path d="M38.4828 4.27586H36.3448V6.41379H38.4828V4.27586Z" fill="black"/>
<path d="M40.6207 4.27586H38.4828V6.41379H40.6207V4.27586Z" fill="black"/>
<path d="M44.8966 4.27586H42.7586V6.41379H44.8966V4.27586Z" fill="black"/>
<path d="M49.1724 4.27586H47.0345V6.41379H49.1724V4.27586Z" fill="black"/>
<path d="M53.4483 4.27586H51.3103V6.41379H53.4483V4.27586Z" fill="black"/>
<path d="M55.5862 4.27586H53.4483V6.41379H55.5862V4.27586Z" fill="black"/>
<path d="M57.7241 4.27586H55.5862V6.41379H57.7241V4.27586Z" fill="black"/>
<path d="M62 4.27586H59.8621V6.41379H62V4.27586Z" fill="black"/>
<path d="M2.13793 6.41379H0V8.55172H2.13793V6.41379Z" fill="black"/>
<path d="M6.41379 6.41379H4.27586V8.55172H6.41379V6.41379Z" fill="black"/>
<path d="M8.55172 6.41379H6.41379V8.55172H8.55172V6.41379Z" fill="black"/>
<path d="M10.6897 6.41379H8.55172V8.55172H10.6897V6.41379Z" fill="black"/>
<path d="M14.9655 6.41379H12.8276V8.55172H14.9655V6.41379Z" fill="black"/>
<path d="M19.2414 6.41379H17.1034V8.55172H19.2414V6.41379Z" fill="black"/>
<path d="M21.3793 6.41379H19.2414V8.55172H21.3793V6.41379Z" fill="black"/>
<path d="M23.5172 6.41379H21.3793V8.55172H23.5172V6.41379Z" fill="black"/>
<path d="M27.7931 6.41379H25.6552V8.55172H27.7931V6.41379Z" fill="black"/>
<path d="M34.2069 6.41379H32.069V8.55172H34.2069V6.41379Z" fill="black"/>
<path d="M36.3448 6.41379H34.2069V8.55172H36.3448V6.41379Z" fill="black"/>
<path d="M38.4828 6.41379H36.3448V8.55172H38.4828V6.41379Z" fill="black"/>
<path d="M40.6207 6.41379H38.4828V8.55172H40.6207V6.41379Z" fill="black"/>
<path d="M49.1724 6.41379H47.0345V8.55172H49.1724V6.41379Z" fill="black"/>
<path d="M53.4483 6.41379H51.3103V8.55172H53.4483V6.41379Z" fill="black"/>
<path d="M55.5862 6.41379H53.4483V8.55172H55.5862V6.41379Z" fill="black"/>
<path d="M57.7241 6.41379H55.5862V8.55172H57.7241V6.41379Z" fill="black"/>
<path d="M62 6.41379H59.8621V8.55172H62V6.41379Z" fill="black"/>
<path d="M2.13793 8.55172H0V10.6897H2.13793V8.55172Z" fill="black"/>
<path d="M6.41379 8.55172H4.27586V10.6897H6.41379V8.55172Z" fill="black"/>
<path d="M8.55172 8.55172H6.41379V10.6897H8.55172V8.55172Z" fill="black"/>
<path d="M10.6897 8.55172H8.55172V10.6897H10.6897V8.55172Z" fill="black"/>
<path d="M14.9655 8.55172H12.8276V10.6897H14.9655V8.55172Z" fill="black"/>
<path d="M19.2414 8.55172H17.1034V10.6897H19.2414V8.55172Z" fill="black"/>
<path d="M21.3793 8.55172H19.2414V10.6897H21.3793V8.55172Z" fill="black"/>
<path d="M25.6552 8.55172H23.5172V10.6897H25.6552V8.55172Z" fill="black"/>
<path d="M29.931 8.55172H27.7931V10.6897H29.931V8.55172Z" fill="black"/>
<path d="M32.069 8.55172H29.931V10.6897H32.069V8.55172Z" fill="black"/>
<path d="M34.2069 8.55172H32.069V10.6897H34.2069V8.55172Z" fill="black"/>
<path d="M40.6207 8.55172H38.4828V10.6897H40.6207V8.55172Z" fill="black"/>
<path d="M49.1724 8.55172H47.0345V10.6897H49.1724V8.55172Z" fill="black"/>
<path d="M53.4483 8.55172H51.3103V10.6897H53.4483V8.55172Z" fill="black"/>
<path d="M55.5862 8.55172H53.4483V10.6897H55.5862V8.55172Z" fill="black"/>
<path d="M57.7241 8.55172H55.5862V10.6897H57.7241V8.55172Z" fill="black"/>
<path d="M62 8.55172H59.8621V10.6897H62V8.55172Z" fill="black"/>
<path d="M2.13793 10.6897H0V12.8276H2.13793V10.6897Z" fill="black"/>
<path d="M14.9655 10.6897H12.8276V12.8276H14.9655V10.6897Z" fill="black"/>
<path d="M19.2414 10.6897H17.1034V12.8276H19.2414V10.6897Z" fill="black"/>
<path d="M21.3793 10.6897H19.2414V12.8276H21.3793V10.6897Z" fill="black"/>
<path d="M23.5172 10.6897H21.3793V12.8276H23.5172V10.6897Z" fill="black"/>
<path d="M25.6552 10.6897H23.5172V12.8276H25.6552V10.6897Z" fill="black"/>
<path d="M27.7931 10.6897H25.6552V12.8276H27.7931V10.6897Z" fill="black"/>
<path d="M29.931 10.6897H27.7931V12.8276H29.931V10.6897Z" fill="black"/>
<path d="M34.2069 10.6897H32.069V12.8276H34.2069V10.6897Z" fill="black"/>
<path d="M42.7586 10.6897H40.6207V12.8276H42.7586V10.6897Z" fill="black"/>
<path d="M44.8966 10.6897H42.7586V12.8276H44.8966V10.6897Z" fill="black"/>
<path d="M49.1724 10.6897H47.0345V12.8276H49.1724V10.6897Z" fill="black"/>
<path d="M62 10.6897H59.8621V12.8276H62V10.6897Z" fill="black"/>
<path d="M2.13793 12.8276H0V14.9655H2.13793V12.8276Z" fill="black"/>
<path d="M4.27586 12.8276H2.13793V14.9655H4.27586V12.8276Z" fill="black"/>
<path d="M6.41379 12.8276H4.27586V14.9655H6.41379V12.8276Z" fill="black"/>
<path d="M8.55172 12.8276H6.41379V14.9655H8.55172V12.8276Z" fill="black"/>
<path d="M10.6897 12.8276H8.55172V14.9655H10.6897V12.8276Z" fill="black"/>
<path d="M12.8276 12.8276H10.6897V14.9655H12.8276V12.8276Z" fill="black"/>
<path d="M14.9655 12.8276H12.8276V14.9655H14.9655V12.8276Z" fill="black"/>
<path d="M19.2414 12.8276H17.1034V14.9655H19.2414V12.8276Z" fill="black"/>
<path d="M23.5172 12.8276H21.3793V14.9655H23.5172V12.8276Z" fill="black"/>
<path d="M27.7931 12.8276H25.6552V14.9655H27.7931V12.8276Z" fill="black"/>
<path d="M32.069 12.8276H29.931V14.9655H32.069V12.8276Z" fill="black"/>
<path d="M36.3448 12.8276H34.2069V14.9655H36.3448V12.8276Z" fill="black"/>
<path d="M40.6207 12.8276H38.4828V14.9655H40.6207V12.8276Z" fill="black"/>
<path d="M44.8966 12.8276H42.7586V14.9655H44.8966V12.8276Z" fill="black"/>
<path d="M49.1724 12.8276H47.0345V14.9655H49.1724V12.8276Z" fill="black"/>
<path d="M51.3103 12.8276H49.1724V14.9655H51.3103V12.8276Z" fill="black"/>
<path d="M53.4483 12.8276H51.3103V14.9655H53.4483V12.8276Z" fill="black"/>
<path d="M55.5862 12.8276H53.4483V14.9655H55.5862V12.8276Z" fill="black"/>
<path d="M57.7241 12.8276H55.5862V14.9655H57.7241V12.8276Z" fill="black"/>
<path d="M59.8621 12.8276H57.7241V14.9655H59.8621V12.8276Z" fill="black"/>
<path d="M62 12.8276H59.8621V14.9655H62V12.8276Z" fill="black"/>
<path d="M19.2414 14.9655H17.1034V17.1034H19.2414V14.9655Z" fill="black"/>
<path d="M21.3793 14.9655H19.2414V17.1034H21.3793V14.9655Z" fill="black"/>
<path d="M23.5172 14.9655H21.3793V17.1034H23.5172V14.9655Z" fill="black"/>
<path d="M25.6552 14.9655H23.5172V17.1034H25.6552V14.9655Z" fill="black"/>
<path d="M34.2069 14.9655H32.069V17.1034H34.2069V14.9655Z" fill="black"/>
<path d="M36.3448 14.9655H34.2069V17.1034H36.3448V14.9655Z" fill="black"/>
<path d="M38.4828 14.9655H36.3448V17.1034H38.4828V14.9655Z" fill="black"/>
<path d="M40.6207 14.9655H38.4828V17.1034H40.6207V14.9655Z" fill="black"/>
<path d="M42.7586 14.9655H40.6207V17.1034H42.7586V14.9655Z" fill="black"/>
<path d="M2.13793 17.1034H0V19.2414H2.13793V17.1034Z" fill="black"/>
<path d="M10.6897 17.1034H8.55172V19.2414H10.6897V17.1034Z" fill="black"/>
<path d="M12.8276 17.1034H10.6897V19.2414H12.8276V17.1034Z" fill="black"/>
<path d="M14.9655 17.1034H12.8276V19.2414H14.9655V17.1034Z" fill="black"/>
<path d="M23.5172 17.1034H21.3793V19.2414H23.5172V17.1034Z" fill="black"/>
<path d="M25.6552 17.1034H23.5172V19.2414H25.6552V17.1034Z" fill="black"/>
<path d="M29.931 17.1034H27.7931V19.2414H29.931V17.1034Z" fill="black"/>
<path d="M34.2069 17.1034H32.069V19.2414H34.2069V17.1034Z" fill="black"/>
<path d="M44.8966 17.1034H42.7586V19.2414H44.8966V17.1034Z" fill="black"/>
<path d="M47.0345 17.1034H44.8966V19.2414H47.0345V17.1034Z" fill="black"/>
<path d="M49.1724 17.1034H47.0345V19.2414H49.1724V17.1034Z" fill="black"/>
<path d="M51.3103 17.1034H49.1724V19.2414H51.3103V17.1034Z" fill="black"/>
<path d="M53.4483 17.1034H51.3103V19.2414H53.4483V17.1034Z" fill="black"/>
<path d="M55.5862 17.1034H53.4483V19.2414H55.5862V17.1034Z" fill="black"/>
<path d="M57.7241 17.1034H55.5862V19.2414H57.7241V17.1034Z" fill="black"/>
<path d="M59.8621 17.1034H57.7241V19.2414H59.8621V17.1034Z" fill="black"/>
<path d="M2.13793 19.2414H0V21.3793H2.13793V19.2414Z" fill="black"/>
<path d="M4.27586 19.2414H2.13793V21.3793H4.27586V19.2414Z" fill="black"/>
<path d="M12.8276 19.2414H10.6897V21.3793H12.8276V19.2414Z" fill="black"/>
<path d="M17.1034 19.2414H14.9655V21.3793H17.1034V19.2414Z" fill="black"/>
<path d="M23.5172 19.2414H21.3793V21.3793H23.5172V19.2414Z" fill="black"/>
<path d="M34.2069 19.2414H32.069V21.3793H34.2069V19.2414Z" fill="black"/>
<path d="M36.3448 19.2414H34.2069V21.3793H36.3448V19.2414Z" fill="black"/>
<path d="M40.6207 19.2414H38.4828V21.3793H40.6207V19.2414Z" fill="black"/>
<path d="M42.7586 19.2414H40.6207V21.3793H42.7586V19.2414Z" fill="black"/>
<path d="M51.3103 19.2414H49.1724V21.3793H51.3103V19.2414Z" fill="black"/>
<path d="M57.7241 19.2414H55.5862V21.3793H57.7241V19.2414Z" fill="black"/>
<path d="M62 19.2414H59.8621V21.3793H62V19.2414Z" fill="black"/>
<path d="M12.8276 21.3793H10.6897V23.5172H12.8276V21.3793Z" fill="black"/>
<path d="M14.9655 21.3793H12.8276V23.5172H14.9655V21.3793Z" fill="black"/>
<path d="M17.1034 21.3793H14.9655V23.5172H17.1034V21.3793Z" fill="black"/>
<path d="M23.5172 21.3793H21.3793V23.5172H23.5172V21.3793Z" fill="black"/>
<path d="M25.6552 21.3793H23.5172V23.5172H25.6552V21.3793Z" fill="black"/>
<path d="M29.931 21.3793H27.7931V23.5172H29.931V21.3793Z" fill="black"/>
<path d="M32.069 21.3793H29.931V23.5172H32.069V21.3793Z" fill="black"/>
<path d="M38.4828 21.3793H36.3448V23.5172H38.4828V21.3793Z" fill="black"/>
<path d="M40.6207 21.3793H38.4828V23.5172H40.6207V21.3793Z" fill="black"/>
<path d="M42.7586 21.3793H40.6207V23.5172H42.7586V21.3793Z" fill="black"/>
<path d="M47.0345 21.3793H44.8966V23.5172H47.0345V21.3793Z" fill="black"/>
<path d="M53.4483 21.3793H51.3103V23.5172H53.4483V21.3793Z" fill="black"/>
<path d="M57.7241 21.3793H55.5862V23.5172H57.7241V21.3793Z" fill="black"/>
<path d="M59.8621 21.3793H57.7241V23.5172H59.8621V21.3793Z" fill="black"/>
<path d="M2.13793 23.5172H0V25.6552H2.13793V23.5172Z" fill="black"/>
<path d="M10.6897 23.5172H8.55172V25.6552H10.6897V23.5172Z" fill="black"/>
<path d="M12.8276 23.5172H10.6897V25.6552H12.8276V23.5172Z" fill="black"/>
<path d="M19.2414 23.5172H17.1034V25.6552H19.2414V23.5172Z" fill="black"/>
<path d="M21.3793 23.5172H19.2414V25.6552H21.3793V23.5172Z" fill="black"/>
<path d="M23.5172 23.5172H21.3793V25.6552H23.5172V23.5172Z" fill="black"/>
<path d="M27.7931 23.5172H25.6552V25.6552H27.7931V23.5172Z" fill="black"/>
<path d="M32.069 23.5172H29.931V25.6552H32.069V23.5172Z" fill="black"/>
<path d="M34.2069 23.5172H32.069V25.6552H34.2069V23.5172Z" fill="black"/>
<path d="M42.7586 23.5172H40.6207V25.6552H42.7586V23.5172Z" fill="black"/>
<path d="M44.8966 23.5172H42.7586V25.6552H44.8966V23.5172Z" fill="black"/>
<path d="M47.0345 23.5172H44.8966V25.6552H47.0345V23.5172Z" fill="black"/>
<path d="M49.1724 23.5172H47.0345V25.6552H49.1724V23.5172Z" fill="black"/>
<path d="M51.3103 23.5172H49.1724V25.6552H51.3103V23.5172Z" fill="black"/>
<path d="M53.4483 23.5172H51.3103V25.6552H53.4483V23.5172Z" fill="black"/>
<path d="M55.5862 23.5172H53.4483V25.6552H55.5862V23.5172Z" fill="black"/>
<path d="M57.7241 23.5172H55.5862V25.6552H57.7241V23.5172Z" fill="black"/>
<path d="M59.8621 23.5172H57.7241V25.6552H59.8621V23.5172Z" fill="black"/>
<path d="M2.13793 25.6552H0V27.7931H2.13793V25.6552Z" fill="black"/>
<path d="M4.27586 25.6552H2.13793V27.7931H4.27586V25.6552Z" fill="black"/>
<path d="M6.41379 25.6552H4.27586V27.7931H6.41379V25.6552Z" fill="black"/>
<path d="M8.55172 25.6552H6.41379V27.7931H8.55172V25.6552Z" fill="black"/>
<path d="M10.6897 25.6552H8.55172V27.7931H10.6897V25.6552Z" fill="black"/>
<path d="M14.9655 25.6552H12.8276V27.7931H14.9655V25.6552Z" fill="black"/>
<path d="M17.1034 25.6552H14.9655V27.7931H17.1034V25.6552Z" fill="black"/>
<path d="M23.5172 25.6552H21.3793V27.7931H23.5172V25.6552Z" fill="black"/>
<path d="M25.6552 25.6552H23.5172V27.7931H25.6552V25.6552Z" fill="black"/>
<path d="M27.7931 25.6552H25.6552V27.7931H27.7931V25.6552Z" fill="black"/>
<path d="M36.3448 25.6552H34.2069V27.7931H36.3448V25.6552Z" fill="black"/>
<path d="M42.7586 25.6552H40.6207V27.7931H42.7586V25.6552Z" fill="black"/>
<path d="M53.4483 25.6552H51.3103V27.7931H53.4483V25.6552Z" fill="black"/>
<path d="M55.5862 25.6552H53.4483V27.7931H55.5862V25.6552Z" fill="black"/>
<path d="M59.8621 25.6552H57.7241V27.7931H59.8621V25.6552Z" fill="black"/>
<path d="M62 25.6552H59.8621V27.7931H62V25.6552Z" fill="black"/>
<path d="M2.13793 27.7931H0V29.931H2.13793V27.7931Z" fill="black"/>
<path d="M23.5172 27.7931H21.3793V29.931H23.5172V27.7931Z" fill="black"/>
<path d="M27.7931 27.7931H25.6552V29.931H27.7931V27.7931Z" fill="black"/>
<path d="M29.931 27.7931H27.7931V29.931H29.931V27.7931Z" fill="black"/>
<path d="M32.069 27.7931H29.931V29.931H32.069V27.7931Z" fill="black"/>
<path d="M40.6207 27.7931H38.4828V29.931H40.6207V27.7931Z" fill="black"/>
<path d="M42.7586 27.7931H40.6207V29.931H42.7586V27.7931Z" fill="black"/>
<path d="M44.8966 27.7931H42.7586V29.931H44.8966V27.7931Z" fill="black"/>
<path d="M53.4483 27.7931H51.3103V29.931H53.4483V27.7931Z" fill="black"/>
<path d="M59.8621 27.7931H57.7241V29.931H59.8621V27.7931Z" fill="black"/>
<path d="M2.13793 29.931H0V32.069H2.13793V29.931Z" fill="black"/>
<path d="M10.6897 29.931H8.55172V32.069H10.6897V29.931Z" fill="black"/>
<path d="M12.8276 29.931H10.6897V32.069H12.8276V29.931Z" fill="black"/>
<path d="M14.9655 29.931H12.8276V32.069H14.9655V29.931Z" fill="black"/>
<path d="M23.5172 29.931H21.3793V32.069H23.5172V29.931Z" fill="black"/>
<path d="M25.6552 29.931H23.5172V32.069H25.6552V29.931Z" fill="black"/>
<path d="M32.069 29.931H29.931V32.069H32.069V29.931Z" fill="black"/>
<path d="M34.2069 29.931H32.069V32.069H34.2069V29.931Z" fill="black"/>
<path d="M36.3448 29.931H34.2069V32.069H36.3448V29.931Z" fill="black"/>
<path d="M38.4828 29.931H36.3448V32.069H38.4828V29.931Z" fill="black"/>
<path d="M40.6207 29.931H38.4828V32.069H40.6207V29.931Z" fill="black"/>
<path d="M44.8966 29.931H42.7586V32.069H44.8966V29.931Z" fill="black"/>
<path d="M47.0345 29.931H44.8966V32.069H47.0345V29.931Z" fill="black"/>
<path d="M51.3103 29.931H49.1724V32.069H51.3103V29.931Z" fill="black"/>
<path d="M55.5862 29.931H53.4483V32.069H55.5862V29.931Z" fill="black"/>
<path d="M62 29.931H59.8621V32.069H62V29.931Z" fill="black"/>
<path d="M10.6897 32.069H8.55172V34.2069H10.6897V32.069Z" fill="black"/>
<path d="M12.8276 32.069H10.6897V34.2069H12.8276V32.069Z" fill="black"/>
<path d="M19.2414 32.069H17.1034V34.2069H19.2414V32.069Z" fill="black"/>
<path d="M21.3793 32.069H19.2414V34.2069H21.3793V32.069Z" fill="black"/>
<path d="M25.6552 32.069H23.5172V34.2069H25.6552V32.069Z" fill="black"/>
<path d="M32.069 32.069H29.931V34.2069H32.069V32.069Z" fill="black"/>
<path d="M34.2069 32.069H32.069V34.2069H34.2069V32.069Z" fill="black"/>
<path d="M36.3448 32.069H34.2069V34.2069H36.3448V32.069Z" fill="black"/>
<path d="M38.4828 32.069H36.3448V34.2069H38.4828V32.069Z" fill="black"/>
<path d="M49.1724 32.069H47.0345V34.2069H49.1724V32.069Z" fill="black"/>
<path d="M53.4483 32.069H51.3103V34.2069H53.4483V32.069Z" fill="black"/>
<path d="M55.5862 32.069H53.4483V34.2069H55.5862V32.069Z" fill="black"/>
<path d="M57.7241 32.069H55.5862V34.2069H57.7241V32.069Z" fill="black"/>
<path d="M59.8621 32.069H57.7241V34.2069H59.8621V32.069Z" fill="black"/>
<path d="M62 32.069H59.8621V34.2069H62V32.069Z" fill="black"/>
<path d="M2.13793 34.2069H0V36.3448H2.13793V34.2069Z" fill="black"/>
<path d="M4.27586 34.2069H2.13793V36.3448H4.27586V34.2069Z" fill="black"/>
<path d="M12.8276 34.2069H10.6897V36.3448H12.8276V34.2069Z" fill="black"/>
<path d="M14.9655 34.2069H12.8276V36.3448H14.9655V34.2069Z" fill="black"/>
<path d="M25.6552 34.2069H23.5172V36.3448H25.6552V34.2069Z" fill="black"/>
<path d="M29.931 34.2069H27.7931V36.3448H29.931V34.2069Z" fill="black"/>
<path d="M34.2069 34.2069H32.069V36.3448H34.2069V34.2069Z" fill="black"/>
<path d="M38.4828 34.2069H36.3448V36.3448H38.4828V34.2069Z" fill="black"/>
<path d="M42.7586 34.2069H40.6207V36.3448H42.7586V34.2069Z" fill="black"/>
<path d="M47.0345 34.2069H44.8966V36.3448H47.0345V34.2069Z" fill="black"/>
<path d="M49.1724 34.2069H47.0345V36.3448H49.1724V34.2069Z" fill="black"/>
<path d="M53.4483 34.2069H51.3103V36.3448H53.4483V34.2069Z" fill="black"/>
<path d="M57.7241 34.2069H55.5862V36.3448H57.7241V34.2069Z" fill="black"/>
<path d="M2.13793 36.3448H0V38.4828H2.13793V36.3448Z" fill="black"/>
<path d="M8.55172 36.3448H6.41379V38.4828H8.55172V36.3448Z" fill="black"/>
<path d="M10.6897 36.3448H8.55172V38.4828H10.6897V36.3448Z" fill="black"/>
<path d="M12.8276 36.3448H10.6897V38.4828H12.8276V36.3448Z" fill="black"/>
<path d="M17.1034 36.3448H14.9655V38.4828H17.1034V36.3448Z" fill="black"/>
<path d="M27.7931 36.3448H25.6552V38.4828H27.7931V36.3448Z" fill="black"/>
<path d="M38.4828 36.3448H36.3448V38.4828H38.4828V36.3448Z" fill="black"/>
<path d="M44.8966 36.3448H42.7586V38.4828H44.8966V36.3448Z" fill="black"/>
<path d="M47.0345 36.3448H44.8966V38.4828H47.0345V36.3448Z" fill="black"/>
<path d="M49.1724 36.3448H47.0345V38.4828H49.1724V36.3448Z" fill="black"/>
<path d="M51.3103 36.3448H49.1724V38.4828H51.3103V36.3448Z" fill="black"/>
<path d="M55.5862 36.3448H53.4483V38.4828H55.5862V36.3448Z" fill="black"/>
<path d="M57.7241 36.3448H55.5862V38.4828H57.7241V36.3448Z" fill="black"/>
<path d="M62 36.3448H59.8621V38.4828H62V36.3448Z" fill="black"/>
<path d="M4.27586 38.4828H2.13793V40.6207H4.27586V38.4828Z" fill="black"/>
<path d="M10.6897 38.4828H8.55172V40.6207H10.6897V38.4828Z" fill="black"/>
<path d="M14.9655 38.4828H12.8276V40.6207H14.9655V38.4828Z" fill="black"/>
<path d="M17.1034 38.4828H14.9655V40.6207H17.1034V38.4828Z" fill="black"/>
<path d="M21.3793 38.4828H19.2414V40.6207H21.3793V38.4828Z" fill="black"/>
<path d="M23.5172 38.4828H21.3793V40.6207H23.5172V38.4828Z" fill="black"/>
<path d="M29.931 38.4828H27.7931V40.6207H29.931V38.4828Z" fill="black"/>
<path d="M32.069 38.4828H29.931V40.6207H32.069V38.4828Z" fill="black"/>
<path d="M36.3448 38.4828H34.2069V40.6207H36.3448V38.4828Z" fill="black"/>
<path d="M42.7586 38.4828H40.6207V40.6207H42.7586V38.4828Z" fill="black"/>
<path d="M51.3103 38.4828H49.1724V40.6207H51.3103V38.4828Z" fill="black"/>
<path d="M55.5862 38.4828H53.4483V40.6207H55.5862V38.4828Z" fill="black"/>
<path d="M57.7241 38.4828H55.5862V40.6207H57.7241V38.4828Z" fill="black"/>
<path d="M59.8621 38.4828H57.7241V40.6207H59.8621V38.4828Z" fill="black"/>
<path d="M10.6897 40.6207H8.55172V42.7586H10.6897V40.6207Z" fill="black"/>
<path d="M17.1034 40.6207H14.9655V42.7586H17.1034V40.6207Z" fill="black"/>
<path d="M19.2414 40.6207H17.1034V42.7586H19.2414V40.6207Z" fill="black"/>
<path d="M23.5172 40.6207H21.3793V42.7586H23.5172V40.6207Z" fill="black"/>
<path d="M25.6552 40.6207H23.5172V42.7586H25.6552V40.6207Z" fill="black"/>
<path d="M27.7931 40.6207H25.6552V42.7586H27.7931V40.6207Z" fill="black"/>
<path d="M29.931 40.6207H27.7931V42.7586H29.931V40.6207Z" fill="black"/>
<path d="M36.3448 40.6207H34.2069V42.7586H36.3448V40.6207Z" fill="black"/>
<path d="M49.1724 40.6207H47.0345V42.7586H49.1724V40.6207Z" fill="black"/>
<path d="M51.3103 40.6207H49.1724V42.7586H51.3103V40.6207Z" fill="black"/>
<path d="M55.5862 40.6207H53.4483V42.7586H55.5862V40.6207Z" fill="black"/>
<path d="M57.7241 40.6207H55.5862V42.7586H57.7241V40.6207Z" fill="black"/>
<path d="M62 40.6207H59.8621V42.7586H62V40.6207Z" fill="black"/>
<path d="M4.27586 42.7586H2.13793V44.8966H4.27586V42.7586Z" fill="black"/>
<path d="M8.55172 42.7586H6.41379V44.8966H8.55172V42.7586Z" fill="black"/>
<path d="M10.6897 42.7586H8.55172V44.8966H10.6897V42.7586Z" fill="black"/>
<path d="M12.8276 42.7586H10.6897V44.8966H12.8276V42.7586Z" fill="black"/>
<path d="M14.9655 42.7586H12.8276V44.8966H14.9655V42.7586Z" fill="black"/>
<path d="M17.1034 42.7586H14.9655V44.8966H17.1034V42.7586Z" fill="black"/>
<path d="M21.3793 42.7586H19.2414V44.8966H21.3793V42.7586Z" fill="black"/>
<path d="M25.6552 42.7586H23.5172V44.8966H25.6552V42.7586Z" fill="black"/>
<path d="M29.931 42.7586H27.7931V44.8966H29.931V42.7586Z" fill="black"/>
<path d="M34.2069 42.7586H32.069V44.8966H34.2069V42.7586Z" fill="black"/>
<path d="M36.3448 42.7586H34.2069V44.8966H36.3448V42.7586Z" fill="black"/>
<path d="M40.6207 42.7586H38.4828V44.8966H40.6207V42.7586Z" fill="black"/>
<path d="M44.8966 42.7586H42.7586V44.8966H44.8966V42.7586Z" fill="black"/>
<path d="M47.0345 42.7586H44.8966V44.8966H47.0345V42.7586Z" fill="black"/>
<path d="M49.1724 42.7586H47.0345V44.8966H49.1724V42.7586Z" fill="black"/>
<path d="M51.3103 42.7586H49.1724V44.8966H51.3103V42.7586Z" fill="black"/>
<path d="M53.4483 42.7586H51.3103V44.8966H53.4483V42.7586Z" fill="black"/>
<path d="M55.5862 42.7586H53.4483V44.8966H55.5862V42.7586Z" fill="black"/>
<path d="M57.7241 42.7586H55.5862V44.8966H57.7241V42.7586Z" fill="black"/>
<path d="M62 42.7586H59.8621V44.8966H62V42.7586Z" fill="black"/>
<path d="M21.3793 44.8966H19.2414V47.0345H21.3793V44.8966Z" fill="black"/>
<path d="M23.5172 44.8966H21.3793V47.0345H23.5172V44.8966Z" fill="black"/>
<path d="M25.6552 44.8966H23.5172V47.0345H25.6552V44.8966Z" fill="black"/>
<path d="M27.7931 44.8966H25.6552V47.0345H27.7931V44.8966Z" fill="black"/>
<path d="M29.931 44.8966H27.7931V47.0345H29.931V44.8966Z" fill="black"/>
<path d="M36.3448 44.8966H34.2069V47.0345H36.3448V44.8966Z" fill="black"/>
<path d="M38.4828 44.8966H36.3448V47.0345H38.4828V44.8966Z" fill="black"/>
<path d="M44.8966 44.8966H42.7586V47.0345H44.8966V44.8966Z" fill="black"/>
<path d="M53.4483 44.8966H51.3103V47.0345H53.4483V44.8966Z" fill="black"/>
<path d="M55.5862 44.8966H53.4483V47.0345H55.5862V44.8966Z" fill="black"/>
<path d="M57.7241 44.8966H55.5862V47.0345H57.7241V44.8966Z" fill="black"/>
<path d="M62 44.8966H59.8621V47.0345H62V44.8966Z" fill="black"/>
<path d="M2.13793 47.0345H0V49.1724H2.13793V47.0345Z" fill="black"/>
<path d="M4.27586 47.0345H2.13793V49.1724H4.27586V47.0345Z" fill="black"/>
<path d="M6.41379 47.0345H4.27586V49.1724H6.41379V47.0345Z" fill="black"/>
<path d="M8.55172 47.0345H6.41379V49.1724H8.55172V47.0345Z" fill="black"/>
<path d="M10.6897 47.0345H8.55172V49.1724H10.6897V47.0345Z" fill="black"/>
<path d="M12.8276 47.0345H10.6897V49.1724H12.8276V47.0345Z" fill="black"/>
<path d="M14.9655 47.0345H12.8276V49.1724H14.9655V47.0345Z" fill="black"/>
<path d="M21.3793 47.0345H19.2414V49.1724H21.3793V47.0345Z" fill="black"/>
<path d="M23.5172 47.0345H21.3793V49.1724H23.5172V47.0345Z" fill="black"/>
<path d="M25.6552 47.0345H23.5172V49.1724H25.6552V47.0345Z" fill="black"/>
<path d="M29.931 47.0345H27.7931V49.1724H29.931V47.0345Z" fill="black"/>
<path d="M32.069 47.0345H29.931V49.1724H32.069V47.0345Z" fill="black"/>
<path d="M34.2069 47.0345H32.069V49.1724H34.2069V47.0345Z" fill="black"/>
<path d="M40.6207 47.0345H38.4828V49.1724H40.6207V47.0345Z" fill="black"/>
<path d="M42.7586 47.0345H40.6207V49.1724H42.7586V47.0345Z" fill="black"/>
<path d="M44.8966 47.0345H42.7586V49.1724H44.8966V47.0345Z" fill="black"/>
<path d="M49.1724 47.0345H47.0345V49.1724H49.1724V47.0345Z" fill="black"/>
<path d="M53.4483 47.0345H51.3103V49.1724H53.4483V47.0345Z" fill="black"/>
<path d="M57.7241 47.0345H55.5862V49.1724H57.7241V47.0345Z" fill="black"/>
<path d="M59.8621 47.0345H57.7241V49.1724H59.8621V47.0345Z" fill="black"/>
<path d="M62 47.0345H59.8621V49.1724H62V47.0345Z" fill="black"/>
<path d="M2.13793 49.1724H0V51.3103H2.13793V49.1724Z" fill="black"/>
<path d="M14.9655 49.1724H12.8276V51.3103H14.9655V49.1724Z" fill="black"/>
<path d="M19.2414 49.1724H17.1034V51.3103H19.2414V49.1724Z" fill="black"/>
<path d="M23.5172 49.1724H21.3793V51.3103H23.5172V49.1724Z" fill="black"/>
<path d="M25.6552 49.1724H23.5172V51.3103H25.6552V49.1724Z" fill="black"/>
<path d="M27.7931 49.1724H25.6552V51.3103H27.7931V49.1724Z" fill="black"/>
<path d="M32.069 49.1724H29.931V51.3103H32.069V49.1724Z" fill="black"/>
<path d="M38.4828 49.1724H36.3448V51.3103H38.4828V49.1724Z" fill="black"/>
<path d="M40.6207 49.1724H38.4828V51.3103H40.6207V49.1724Z" fill="black"/>
<path d="M42.7586 49.1724H40.6207V51.3103H42.7586V49.1724Z" fill="black"/>
<path d="M44.8966 49.1724H42.7586V51.3103H44.8966V49.1724Z" fill="black"/>
<path d="M53.4483 49.1724H51.3103V51.3103H53.4483V49.1724Z" fill="black"/>
<path d="M55.5862 49.1724H53.4483V51.3103H55.5862V49.1724Z" fill="black"/>
<path d="M57.7241 49.1724H55.5862V51.3103H57.7241V49.1724Z" fill="black"/>
<path d="M2.13793 51.3103H0V53.4483H2.13793V51.3103Z" fill="black"/>
<path d="M6.41379 51.3103H4.27586V53.4483H6.41379V51.3103Z" fill="black"/>
<path d="M8.55172 51.3103H6.41379V53.4483H8.55172V51.3103Z" fill="black"/>
<path d="M10.6897 51.3103H8.55172V53.4483H10.6897V51.3103Z" fill="black"/>
<path d="M14.9655 51.3103H12.8276V53.4483H14.9655V51.3103Z" fill="black"/>
<path d="M19.2414 51.3103H17.1034V53.4483H19.2414V51.3103Z" fill="black"/>
<path d="M21.3793 51.3103H19.2414V53.4483H21.3793V51.3103Z" fill="black"/>
<path d="M23.5172 51.3103H21.3793V53.4483H23.5172V51.3103Z" fill="black"/>
<path d="M29.931 51.3103H27.7931V53.4483H29.931V51.3103Z" fill="black"/>
<path d="M34.2069 51.3103H32.069V53.4483H34.2069V51.3103Z" fill="black"/>
<path d="M38.4828 51.3103H36.3448V53.4483H38.4828V51.3103Z" fill="black"/>
<path d="M44.8966 51.3103H42.7586V53.4483H44.8966V51.3103Z" fill="black"/>
<path d="M47.0345 51.3103H44.8966V53.4483H47.0345V51.3103Z" fill="black"/>
<path d="M49.1724 51.3103H47.0345V53.4483H49.1724V51.3103Z" fill="black"/>
<path d="M51.3103 51.3103H49.1724V53.4483H51.3103V51.3103Z" fill="black"/>
<path d="M53.4483 51.3103H51.3103V53.4483H53.4483V51.3103Z" fill="black"/>
<path d="M57.7241 51.3103H55.5862V53.4483H57.7241V51.3103Z" fill="black"/>
<path d="M59.8621 51.3103H57.7241V53.4483H59.8621V51.3103Z" fill="black"/>
<path d="M62 51.3103H59.8621V53.4483H62V51.3103Z" fill="black"/>
<path d="M2.13793 53.4483H0V55.5862H2.13793V53.4483Z" fill="black"/>
<path d="M6.41379 53.4483H4.27586V55.5862H6.41379V53.4483Z" fill="black"/>
<path d="M8.55172 53.4483H6.41379V55.5862H8.55172V53.4483Z" fill="black"/>
<path d="M10.6897 53.4483H8.55172V55.5862H10.6897V53.4483Z" fill="black"/>
<path d="M14.9655 53.4483H12.8276V55.5862H14.9655V53.4483Z" fill="black"/>
<path d="M29.931 53.4483H27.7931V55.5862H29.931V53.4483Z" fill="black"/>
<path d="M34.2069 53.4483H32.069V55.5862H34.2069V53.4483Z" fill="black"/>
<path d="M36.3448 53.4483H34.2069V55.5862H36.3448V53.4483Z" fill="black"/>
<path d="M38.4828 53.4483H36.3448V55.5862H38.4828V53.4483Z" fill="black"/>
<path d="M42.7586 53.4483H40.6207V55.5862H42.7586V53.4483Z" fill="black"/>
<path d="M47.0345 53.4483H44.8966V55.5862H47.0345V53.4483Z" fill="black"/>
<path d="M51.3103 53.4483H49.1724V55.5862H51.3103V53.4483Z" fill="black"/>
<path d="M53.4483 53.4483H51.3103V55.5862H53.4483V53.4483Z" fill="black"/>
<path d="M57.7241 53.4483H55.5862V55.5862H57.7241V53.4483Z" fill="black"/>
<path d="M59.8621 53.4483H57.7241V55.5862H59.8621V53.4483Z" fill="black"/>
<path d="M2.13793 55.5862H0V57.7241H2.13793V55.5862Z" fill="black"/>
<path d="M6.41379 55.5862H4.27586V57.7241H6.41379V55.5862Z" fill="black"/>
<path d="M8.55172 55.5862H6.41379V57.7241H8.55172V55.5862Z" fill="black"/>
<path d="M10.6897 55.5862H8.55172V57.7241H10.6897V55.5862Z" fill="black"/>
<path d="M14.9655 55.5862H12.8276V57.7241H14.9655V55.5862Z" fill="black"/>
<path d="M23.5172 55.5862H21.3793V57.7241H23.5172V55.5862Z" fill="black"/>
<path d="M27.7931 55.5862H25.6552V57.7241H27.7931V55.5862Z" fill="black"/>
<path d="M36.3448 55.5862H34.2069V57.7241H36.3448V55.5862Z" fill="black"/>
<path d="M38.4828 55.5862H36.3448V57.7241H38.4828V55.5862Z" fill="black"/>
<path d="M40.6207 55.5862H38.4828V57.7241H40.6207V55.5862Z" fill="black"/>
<path d="M44.8966 55.5862H42.7586V57.7241H44.8966V55.5862Z" fill="black"/>
<path d="M53.4483 55.5862H51.3103V57.7241H53.4483V55.5862Z" fill="black"/>
<path d="M57.7241 55.5862H55.5862V57.7241H57.7241V55.5862Z" fill="black"/>
<path d="M62 55.5862H59.8621V57.7241H62V55.5862Z" fill="black"/>
<path d="M2.13793 57.7241H0V59.8621H2.13793V57.7241Z" fill="black"/>
<path d="M14.9655 57.7241H12.8276V59.8621H14.9655V57.7241Z" fill="black"/>
<path d="M25.6552 57.7241H23.5172V59.8621H25.6552V57.7241Z" fill="black"/>
<path d="M27.7931 57.7241H25.6552V59.8621H27.7931V57.7241Z" fill="black"/>
<path d="M29.931 57.7241H27.7931V59.8621H29.931V57.7241Z" fill="black"/>
<path d="M38.4828 57.7241H36.3448V59.8621H38.4828V57.7241Z" fill="black"/>
<path d="M51.3103 57.7241H49.1724V59.8621H51.3103V57.7241Z" fill="black"/>
<path d="M57.7241 57.7241H55.5862V59.8621H57.7241V57.7241Z" fill="black"/>
<path d="M59.8621 57.7241H57.7241V59.8621H59.8621V57.7241Z" fill="black"/>
<path d="M2.13793 59.8621H0V62H2.13793V59.8621Z" fill="black"/>
<path d="M4.27586 59.8621H2.13793V62H4.27586V59.8621Z" fill="black"/>
<path d="M6.41379 59.8621H4.27586V62H6.41379V59.8621Z" fill="black"/>
<path d="M8.55172 59.8621H6.41379V62H8.55172V59.8621Z" fill="black"/>
<path d="M10.6897 59.8621H8.55172V62H10.6897V59.8621Z" fill="black"/>
<path d="M12.8276 59.8621H10.6897V62H12.8276V59.8621Z" fill="black"/>
<path d="M14.9655 59.8621H12.8276V62H14.9655V59.8621Z" fill="black"/>
<path d="M19.2414 59.8621H17.1034V62H19.2414V59.8621Z" fill="black"/>
<path d="M21.3793 59.8621H19.2414V62H21.3793V59.8621Z" fill="black"/>
<path d="M27.7931 59.8621H25.6552V62H27.7931V59.8621Z" fill="black"/>
<path d="M29.931 59.8621H27.7931V62H29.931V59.8621Z" fill="black"/>
<path d="M38.4828 59.8621H36.3448V62H38.4828V59.8621Z" fill="black"/>
<path d="M42.7586 59.8621H40.6207V62H42.7586V59.8621Z" fill="black"/>
<path d="M47.0345 59.8621H44.8966V62H47.0345V59.8621Z" fill="black"/>
<path d="M53.4483 59.8621H51.3103V62H53.4483V59.8621Z" fill="black"/>
</svg>
